<svg width="114" height="45" viewBox="0 0 114 45" fill="none" xmlns="http://www.w3.org/2000/svg">
<path d="M108.547 14.0844C110.171 14.0844 111.795 14.0958 113.419 14.0762C113.806 14.0714 113.96 14.1394 113.957 14.5766C113.938 17.8176 113.946 21.0588 113.949 24.3C113.95 24.5411 113.935 24.7371 113.703 24.9038C111.793 26.2741 109.853 27.612 107.529 28.1698C104.1 28.9928 100.662 29.0845 97.3297 27.7473C94.8562 26.755 93.2423 24.836 92.233 22.4352C90.5778 18.4989 90.5071 14.4498 91.7838 10.4174C92.7796 7.27251 94.782 4.92892 97.9465 3.71849C99.5969 3.08747 101.335 2.95169 103.078 2.93917C104.82 2.92643 106.565 3.00069 108.244 3.53586C110.495 4.25322 111.978 5.80971 112.909 7.92597C113.159 8.4946 113.331 9.09755 113.546 9.68193C113.636 9.92566 113.572 10.0237 113.308 10.0746C111.275 10.466 109.243 10.8647 107.216 11.2822C106.949 11.3371 106.868 11.2404 106.794 11.0344C106.152 9.25126 104.846 8.41796 102.981 8.4253C100.923 8.43329 99.4892 9.41921 98.6801 11.2879C98.0881 12.6557 97.9727 14.1176 97.9651 15.5877C97.9567 17.193 98.045 18.7903 98.6473 20.3064C99.4432 22.31 101.277 23.3836 103.428 23.2532C104.97 23.1597 106.297 22.5727 107.569 21.7789C107.662 21.7202 107.807 21.6321 107.809 21.5542C107.83 20.8524 107.846 20.1484 107.811 19.4477C107.8 19.2121 107.525 19.3086 107.369 19.3076C106.136 19.2996 104.903 19.2875 103.671 19.3119C103.271 19.3199 103.131 19.2253 103.139 18.8002C103.166 17.3951 103.166 15.9886 103.139 14.5833C103.13 14.1519 103.282 14.071 103.675 14.0759C105.299 14.096 106.923 14.0844 108.547 14.0844Z" fill="#29488D"/>
<path d="M54.1774 28.7261C52.9219 28.7392 51.6814 28.616 50.4456 28.3882C47.1954 27.7887 45.2729 25.7701 44.2978 22.7225C44.0714 22.0146 43.9478 21.2843 43.8407 20.5501C43.7889 20.1969 43.853 20.0415 44.2732 20.0195C46.1284 19.9223 47.9829 19.7995 49.8342 19.6449C50.3004 19.606 50.4713 19.6915 50.5387 20.1853C50.713 21.4652 51.2025 22.6096 52.3867 23.2864C53.6029 23.9813 54.8958 24.0344 56.148 23.4159C57.0087 22.9908 57.4913 22.2355 57.4803 21.2407C57.4693 20.2191 56.9304 19.5225 56.0524 19.0625C54.8468 18.4308 53.5113 18.1851 52.2227 17.8037C50.5128 17.2979 48.8356 16.7221 47.3745 15.6615C43.5047 12.8529 43.8297 6.74203 47.9609 4.31986C49.4708 3.43455 51.1164 3.11483 52.8281 2.99113C54.4167 2.87628 55.9928 2.92874 57.5539 3.26594C60.9379 3.99669 62.9381 6.13239 63.4431 9.55385C63.5666 10.3904 63.5662 10.3826 62.6981 10.4372C60.9804 10.5456 59.2618 10.6462 57.5469 10.7889C57.0918 10.8269 56.9517 10.6691 56.8645 10.2574C56.3891 8.00924 54.8259 7.35254 52.8061 7.65865C51.8124 7.80934 51.1773 8.5403 51.127 9.42152C51.0838 10.178 51.6413 10.8362 52.6291 11.1246C54.2773 11.6062 55.9421 12.0328 57.5832 12.5362C59.2916 13.0604 60.9506 13.7259 62.2408 15.0201C64.1612 16.9471 64.5991 19.3261 64.1063 21.8944C63.3922 25.6161 60.5438 28.114 56.634 28.5847C55.8159 28.6831 54.9979 28.7142 54.1774 28.7261Z" fill="#29488D"/>
<path d="M77.8248 10.0806C77.7808 10.0772 77.7369 10.0735 77.6929 10.0701C76.9231 12.8635 76.1584 15.6587 75.3752 18.4485C75.2848 18.7702 75.3843 18.814 75.6625 18.8125C77.0517 18.8054 78.4414 18.7989 79.8304 18.8164C80.1902 18.8209 80.2057 18.6923 80.123 18.4032C79.8343 17.3916 79.5647 16.3744 79.285 15.3604C78.7994 13.6001 78.3115 11.8405 77.8248 10.0806ZM65.5516 28.2635C66.0732 26.7219 66.5933 25.1751 67.1197 23.6303C69.3429 17.1028 71.5749 10.578 73.7793 4.04423C73.9584 3.51273 74.1934 3.33982 74.7567 3.34931C76.9082 3.38623 79.0612 3.37133 81.2136 3.35687C81.5569 3.35471 81.7242 3.44344 81.841 3.78927C84.5508 11.8183 87.271 19.8436 90.0037 27.8648C90.1479 28.2874 90.0432 28.3454 89.6465 28.3427C87.5332 28.3276 85.4197 28.3261 83.3066 28.3447C82.9468 28.3479 82.7947 28.2345 82.7079 27.8952C82.434 26.8193 82.1202 25.7533 81.8468 24.6768C81.762 24.3422 81.628 24.2082 81.258 24.211C78.9099 24.2294 76.5618 24.2291 74.2137 24.211C73.8608 24.2082 73.7439 24.3476 73.6638 24.6514C73.375 25.7437 73.0623 26.8298 72.7675 27.9207C72.703 28.159 72.6568 28.3447 72.3281 28.3425C70.117 28.327 67.9059 28.3319 65.6947 28.3281C65.6619 28.3281 65.6293 28.2996 65.5516 28.2635Z" fill="#29488D"/>
<path d="M20.2079 27.1465C21.1281 26.2502 22.0599 25.3441 22.9926 24.4393C23.2167 24.2222 23.137 24.1047 22.96 23.9271C20.6302 21.5893 18.3039 19.2481 15.9838 16.9006C15.7813 16.6958 15.6565 16.669 15.4379 16.8918C13.1278 19.2485 10.8092 21.5971 8.48536 23.9404C8.29524 24.1322 8.27165 24.2479 8.47877 24.4447C9.42745 25.3465 10.3732 26.248 11.3152 27.1465H20.2079Z" fill="#29488D"/>
<path d="M7.37118 8.3152C7.46728 8.40544 7.54047 8.46977 7.60893 8.53885C9.93867 10.882 12.264 13.2299 14.6032 15.5638C14.8549 15.8146 14.7967 15.9431 14.5785 16.1615C12.2715 18.4723 9.96986 20.788 7.67991 23.1157C7.42725 23.3726 7.29573 23.3676 7.04661 23.1131C4.76264 20.7801 2.46652 18.4585 0.167119 16.1406C-0.0320082 15.9398 -0.0718841 15.8138 0.150258 15.5901C2.47899 13.2461 4.79711 10.8915 7.1191 8.54079C7.19667 8.46221 7.28367 8.39313 7.37118 8.3152Z" fill="#29488D"/>
<path d="M24.0362 8.31919C24.1272 8.39604 24.2181 8.46188 24.2962 8.54046C26.6247 10.881 28.9484 13.2263 31.2853 15.5585C31.5342 15.8069 31.4837 15.9401 31.2633 16.1606C28.9584 18.4692 26.6586 20.7834 24.3698 23.1082C24.1188 23.3631 23.982 23.3679 23.7286 23.1088C21.4466 20.7778 19.1526 18.4579 16.855 16.1424C16.6507 15.9367 16.621 15.8067 16.841 15.5848C19.1672 13.2423 21.4836 10.8899 23.8031 8.54068C23.8713 8.4716 23.944 8.40662 24.0362 8.31919Z" fill="#29488D"/>
<path d="M27.7853 27.1465H36.9341C37.8247 26.2484 38.7141 25.3493 39.6046 24.451C39.6836 24.3714 39.7527 24.2816 39.8342 24.1872C39.7371 24.0845 39.6588 23.9979 39.5765 23.915C37.2656 21.5844 34.9505 19.2574 32.6477 16.9183C32.4075 16.6742 32.2752 16.6979 32.0488 16.9287C29.7507 19.2721 27.4441 21.6075 25.1322 23.9374C24.9434 24.1278 24.9114 24.2367 25.1188 24.4452C26.0104 25.3428 26.8959 26.2467 27.7853 27.1465Z" fill="#29488D"/>
<path d="M32.3906 -0.000364304C32.4754 0.0743303 32.5812 0.158091 32.6755 0.253078C34.9761 2.5645 37.2715 4.88066 39.5802 7.18388C39.8184 7.42178 39.8096 7.54979 39.5769 7.78186C37.2554 10.0998 34.9414 12.4254 32.6379 14.761C32.3945 15.008 32.2654 14.9786 32.0403 14.7491C29.7569 12.4211 27.4665 10.1 25.1676 7.78704C24.9414 7.55929 24.915 7.43084 25.157 7.18776C27.4572 4.87591 29.7433 2.55068 32.0353 0.230842C32.1281 0.136502 32.2033 0.00956631 32.3906 -0.000364304Z" fill="#29488D"/>
<path d="M15.7177 15.0166C15.6193 14.9305 15.5295 14.8616 15.4509 14.7819C13.1422 12.4453 10.8382 10.1045 8.52235 7.77515C8.28544 7.53704 8.29893 7.40384 8.52992 7.17155C10.8188 4.87072 13.1012 2.56318 15.3697 0.242483C15.6562 -0.0504646 15.8083 0.00134659 16.0667 0.263855C18.3438 2.57657 20.6306 4.87978 22.9243 7.17587C23.1488 7.4006 23.1876 7.52819 22.9409 7.77472C20.6168 10.0959 18.3063 12.4306 15.9915 14.7608C15.9098 14.8428 15.8223 14.9192 15.7177 15.0166Z" fill="#29488D"/>
<path d="M40.6467 8.39115C40.6467 13.3948 40.6467 18.3181 40.6467 23.2529C40.4313 23.2521 40.3539 23.0707 40.241 22.9565C38.0139 20.7068 35.7923 18.4518 33.5661 16.201C33.3678 16.0005 33.1854 15.8727 33.493 15.565C35.8145 13.2437 38.1147 10.9014 40.4225 8.56666C40.4713 8.51744 40.5323 8.48009 40.6467 8.39115Z" fill="#29488D"/>
<path d="M111.685 38.423C111.414 38.1339 111.097 37.8763 110.743 37.6564C110.416 37.4533 110.071 37.2575 109.711 37.0714L109.147 36.7893C109.003 36.7176 108.878 36.6373 108.774 36.5503C108.686 36.4767 108.616 36.3929 108.561 36.2944C108.518 36.2165 108.496 36.1066 108.496 35.9681C108.496 35.817 108.524 35.6956 108.58 35.6071C108.645 35.5044 108.732 35.4219 108.845 35.3545C108.974 35.2785 109.128 35.2226 109.305 35.1887C109.509 35.1501 109.725 35.1306 109.947 35.1306C110.354 35.1306 110.735 35.1937 111.08 35.3181C111.431 35.445 111.729 35.6007 111.966 35.7807L112.397 36.1081L113.958 33.3462L113.592 33.1027C113.408 32.9805 113.186 32.8557 112.932 32.7316C112.674 32.6058 112.386 32.4933 112.076 32.3976C111.771 32.3041 111.441 32.2243 111.093 32.1606C110.734 32.095 110.36 32.0617 109.98 32.0617C109.161 32.0617 108.432 32.1613 107.814 32.3575C107.183 32.5578 106.646 32.8415 106.219 33.2011C105.783 33.5675 105.45 34.0072 105.228 34.5074C105.009 35.0029 104.898 35.5448 104.898 36.1172C104.898 36.5691 104.963 36.9779 105.092 37.3317C105.217 37.6789 105.391 37.9995 105.606 38.2849C105.82 38.5681 106.08 38.8254 106.38 39.0502C106.658 39.2589 106.957 39.4584 107.275 39.6462C107.517 39.7848 107.762 39.913 108.003 40.0277C108.21 40.1265 108.398 40.2353 108.563 40.3517C108.71 40.4557 108.832 40.5702 108.923 40.6909C108.983 40.7685 109.01 40.8597 109.01 40.9773C109.01 41.165 108.974 41.3111 108.904 41.4119C108.822 41.5297 108.72 41.6183 108.591 41.6825C108.437 41.7595 108.256 41.814 108.051 41.8454C107.823 41.8801 107.591 41.898 107.36 41.898C107.109 41.898 106.866 41.8713 106.636 41.8184C106.392 41.7629 106.159 41.6933 105.941 41.6122C105.725 41.5321 105.529 41.446 105.359 41.3558C105.185 41.2633 105.037 41.177 104.92 41.0987L104.493 40.813L102.942 43.6104L103.293 43.8541C103.456 43.9668 103.66 44.0857 103.919 44.2181C104.178 44.3506 104.487 44.475 104.835 44.5872C105.176 44.6971 105.563 44.7942 105.986 44.8754C106.418 44.9579 106.886 45 107.377 45C108.121 45 108.81 44.9197 109.426 44.761C110.063 44.5974 110.622 44.3398 111.09 43.9953C111.569 43.6426 111.946 43.1948 112.21 42.6651C112.475 42.1368 112.609 41.5131 112.609 40.8113C112.609 40.2955 112.523 39.8362 112.354 39.4454C112.189 39.0657 111.964 38.7218 111.685 38.423ZM100.757 38.423C100.486 38.1339 100.17 37.8763 99.8157 37.6564C99.4885 37.4533 99.143 37.2575 98.783 37.0714L98.2192 36.7893C98.0755 36.7176 97.9501 36.6373 97.8459 36.5503C97.7578 36.4767 97.6881 36.3929 97.6333 36.2944C97.5903 36.2165 97.5683 36.1066 97.5683 35.9681C97.5683 35.817 97.5966 35.6956 97.6527 35.6071C97.7175 35.5044 97.8042 35.4219 97.9175 35.3545C98.0457 35.2785 98.2009 35.2226 98.3777 35.1887C98.5807 35.1501 98.7966 35.1306 99.0193 35.1306C99.4261 35.1306 99.8072 35.1937 100.152 35.3181C100.503 35.445 100.801 35.6007 101.038 35.7807L101.469 36.1081L103.03 33.3462L102.664 33.1027C102.48 32.9805 102.258 32.8557 102.004 32.7316C101.746 32.6058 101.458 32.4933 101.148 32.3976C100.844 32.3041 100.513 32.2243 100.166 32.1606C99.8064 32.095 99.4319 32.0617 99.0523 32.0617C98.2335 32.0617 97.5047 32.1613 96.8864 32.3575C96.2549 32.5578 95.7183 32.8415 95.2908 33.2011C94.8553 33.5675 94.522 34.0072 94.3004 34.5074C94.0811 35.0029 93.9698 35.5448 93.9698 36.1172C93.9698 36.5691 94.0352 36.9779 94.164 37.3317C94.2898 37.6789 94.4629 37.9995 94.6785 38.2849C94.8924 38.5681 95.1529 38.8254 95.4522 39.0502C95.7306 39.2589 96.0295 39.4584 96.347 39.6462C96.5892 39.7848 96.8341 39.913 97.0748 40.0277C97.2817 40.1265 97.4706 40.2353 97.6355 40.3517C97.7826 40.4557 97.9042 40.5702 97.9957 40.6909C98.0548 40.7685 98.0824 40.8597 98.0824 40.9773C98.0824 41.165 98.0466 41.3111 97.9767 41.4119C97.8942 41.5297 97.7919 41.6183 97.6633 41.6825C97.5096 41.7595 97.3283 41.814 97.1235 41.8454C96.8956 41.8801 96.6632 41.898 96.4323 41.898C96.1815 41.898 95.938 41.8713 95.7084 41.8184C95.4643 41.7629 95.2308 41.6933 95.0133 41.6122C94.7977 41.5321 94.6017 41.446 94.4314 41.3558C94.257 41.2633 94.1094 41.177 93.9922 41.0987L93.5651 40.813L92.0142 43.6104L92.3658 43.8541C92.5279 43.9668 92.7329 44.0857 92.9915 44.2181C93.2504 44.3506 93.5588 44.475 93.9074 44.5872C94.2484 44.6971 94.6356 44.7942 95.0581 44.8754C95.4902 44.9579 95.9579 45 96.4489 45C97.1928 45 97.8823 44.9197 98.4985 44.761C99.1352 44.5974 99.6946 44.3398 100.162 43.9953C100.641 43.6426 101.018 43.1948 101.283 42.6651C101.547 42.1368 101.681 41.5131 101.681 40.8113C101.681 40.2955 101.595 39.8362 101.426 39.4454C101.261 39.0657 101.036 38.7218 100.757 38.423ZM91.8101 35.396L92.5773 32.3272H84.087L81.1076 44.7677H89.9538L90.7189 41.6824H85.405L85.8459 39.8081H90.1865L90.9334 36.7724H86.5784L86.8928 35.396H91.8101ZM74.3762 35.3538L73.8481 37.5852H74.1291C74.6147 37.5852 75.025 37.5407 75.348 37.4527C75.653 37.3693 75.8951 37.2616 76.0676 37.1323C76.2234 37.0155 76.3289 36.89 76.3907 36.7491C76.4586 36.5924 76.4921 36.4396 76.4921 36.2832C76.4921 36.1438 76.4725 36.0149 76.4319 35.8891C76.4019 35.796 76.3464 35.7129 76.2625 35.6354C76.171 35.551 76.0352 35.4795 75.8591 35.4232C75.6636 35.361 75.399 35.3297 75.0744 35.3297C74.8987 35.3297 74.7122 35.3349 74.5197 35.3455C74.4701 35.3483 74.4222 35.351 74.3762 35.3538ZM79.7192 34.5091C79.9217 34.9722 80.0244 35.4629 80.0244 35.9681C80.0244 36.3676 79.9782 36.7668 79.8876 37.1541C79.7911 37.5656 79.6098 37.9615 79.3489 38.331C79.0925 38.694 78.7478 39.0303 78.3244 39.331C78.0251 39.5437 77.6653 39.7338 77.2505 39.8988C77.4885 40.383 77.7315 40.9356 77.9761 41.5485C78.3041 42.3729 78.6173 43.2482 78.9073 44.1501L79.1057 44.7677H75.3474L75.2395 44.4445C74.9861 43.6847 74.7271 42.9248 74.4705 42.186C74.2584 41.5772 74.0236 41.0356 73.771 40.5713H73.1251L72.1136 44.7677H68.572L71.4853 32.5568L71.7879 32.5009C72.3982 32.3879 73.0006 32.3076 73.5779 32.262C74.1543 32.2172 74.6855 32.1943 75.157 32.1943C75.9426 32.1943 76.6438 32.2912 77.2412 32.4822C77.8487 32.6768 78.3641 32.9451 78.7729 33.28C79.1944 33.6247 79.5129 34.0383 79.7192 34.5091ZM62.7738 37.7011C63.0964 37.6405 63.3722 37.5414 63.593 37.406C63.7972 37.2808 63.95 37.1269 64.0601 36.9351C64.1669 36.7491 64.2211 36.5075 64.2211 36.2169C64.2211 35.796 64.0581 35.6466 63.9163 35.5635C63.6319 35.3973 63.1957 35.3131 62.621 35.3131C62.4485 35.3131 62.3001 35.3181 62.1788 35.328L62.1237 35.3327L61.543 37.8009H61.593C62.0266 37.8009 62.4239 37.7672 62.7738 37.7011ZM67.4523 34.3584C67.6962 34.834 67.8196 35.3696 67.8196 35.9515C67.8196 36.8587 67.6377 37.6448 67.279 38.2884C66.9205 38.931 66.4198 39.457 65.7909 39.852C65.1817 40.2347 64.4591 40.5125 63.6435 40.6777C62.8543 40.8381 61.9858 40.9195 61.0623 40.9195H60.7878L59.8591 44.7677H56.3176L59.2311 32.5568L59.5337 32.5009C60.1436 32.3881 60.7313 32.3078 61.2803 32.2623C61.8296 32.2172 62.3529 32.1943 62.8364 32.1943C63.571 32.1943 64.2454 32.2752 64.8407 32.4343C65.4527 32.5982 65.9824 32.841 66.4146 33.156C66.8599 33.4802 67.2091 33.885 67.4523 34.3584ZM52.76 32.3272L52.6186 32.525C52.2377 33.0582 51.8106 33.6379 51.3496 34.248C51.0527 34.6404 50.7453 35.0337 50.4315 35.423L49.2309 32.3272H45.3263L47.8413 37.9647L42.1588 44.7677H46.3452L49.3371 41.1193C49.3647 41.1824 49.3919 41.2445 49.4183 41.3057C49.5352 41.5765 49.652 41.8702 49.7655 42.1774C49.8808 42.4901 50.0014 42.8276 50.1274 43.1894C50.2517 43.5475 50.3931 43.9688 50.5474 44.4415L50.6538 44.7677H54.4177L54.215 44.148C54.0275 43.5741 53.8421 43.0293 53.6641 42.5275C53.4875 42.0306 53.3013 41.5367 53.1105 41.0587C52.9219 40.5876 52.7216 40.111 52.5153 39.6421C52.3473 39.2608 52.1699 38.861 51.9837 38.4424C52.2854 38.1003 52.5981 37.7372 52.9167 37.3594C53.3019 36.9028 53.6925 36.4249 54.0782 35.9385C54.4576 35.4601 54.834 34.9711 55.1979 34.4845C55.5564 34.004 55.9019 33.5292 56.2248 33.0731L56.7526 32.3272H52.76ZM36.6295 39.8081L36.1885 41.6824H41.5024L40.7374 44.7677H31.3915L34.8705 32.3272H43.3606L42.5936 35.396H37.6764L37.362 36.7724H41.7168L40.97 39.8081H36.6295Z" fill="#29488D"/>
<path d="M30.8295 41.4893H20.7533L19.1902 44.7676H29.9712L30.8295 41.4893ZM32.2192 36.9081H14.8682L13.5755 40.1865H31.2383L32.2192 36.9081ZM32.7097 35.6053H8.35059L9.90263 32.3271H33.7519L32.7097 35.6053Z" fill="#29488D"/>
</svg>
